HIERARCHY
ROOT Hips
{
	OFFSET 0.000000 83.214638 0.000000
	CHANNELS 6 Xposition Yposition Zposition Xrotation Yrotation Zrotation
	JOINT Pelvis
	{
		OFFSET 0.000000 0.000000 0.000000
		CHANNELS 3 Xrotation Yrotation Zrotation
		JOINT LeftUpLeg
		{
			OFFSET 8.479700 -4.795502 -0.379100
			CHANNELS 3 Xrotation Yrotation Zrotation
			JOINT LeftLeg
			{
				OFFSET 0.024144 -32.555107 0.112900
				CHANNELS 3 Xrotation Yrotation Zrotation
				JOINT LeftFoot
				{
					OFFSET -0.024144 -32.638630 -3.012600
					CHANNELS 3 Xrotation Yrotation Zrotation
					JOINT LeftToeBase
					{
						OFFSET 0.970200 -13.225400 11.864200
						CHANNELS 3 Xrotation Yrotation Zrotation
						End Site
						{
							OFFSET 0.000000 12.319262 0.000000
						}
					}
					JOINT LFootTongue
					{
						OFFSET 1.142400 -1.059800 6.665200
						CHANNELS 3 Xrotation Yrotation Zrotation
						End Site
						{
							OFFSET 0.000000 12.319262 0.000000
						}
					}
				}
				JOINT LeftPantLeg
				{
					OFFSET 0.918482 -16.533964 -2.284700
					CHANNELS 3 Xrotation Yrotation Zrotation
					End Site
					{
						OFFSET 0.350399 24.744368 0.000000
					}
				}
			}
		}
		JOINT RightUpLeg
		{
			OFFSET -8.479700 -4.795502 -0.379100
			CHANNELS 3 Xrotation Yrotation Zrotation
			JOINT RightLeg
			{
				OFFSET -0.023144 -32.555092 0.112900
				CHANNELS 3 Xrotation Yrotation Zrotation
				JOINT RightFoot
				{
					OFFSET 0.023144 -32.638641 -3.012700
					CHANNELS 3 Xrotation Yrotation Zrotation
					JOINT RightToeBase
					{
						OFFSET -0.970200 -13.225400 11.864200
						CHANNELS 3 Xrotation Yrotation Zrotation
						End Site
						{
							OFFSET 0.000000 12.319244 0.000000
						}
					}
					JOINT RFootTongue
					{
						OFFSET -1.142200 -1.059800 6.665200
						CHANNELS 3 Xrotation Yrotation Zrotation
						End Site
						{
							OFFSET 0.000000 12.319243 0.000000
						}
					}
				}
				JOINT RightPantLeg
				{
					OFFSET -0.919482 -16.533978 -2.284800
					CHANNELS 3 Xrotation Yrotation Zrotation
					End Site
					{
						OFFSET -0.350400 24.744419 0.000000
					}
				}
			}
		}
	}
	JOINT Spine
	{
		OFFSET 0.000000 7.722000 1.166200
		CHANNELS 3 Xrotation Yrotation Zrotation
		JOINT Spine1
		{
			OFFSET 0.000000 12.024101 0.248800
			CHANNELS 3 Xrotation Yrotation Zrotation
			JOINT Spine2
			{
				OFFSET 0.000000 11.502998 -0.491200
				CHANNELS 3 Xrotation Yrotation Zrotation
				JOINT Neck
				{
					OFFSET 0.000000 18.430702 -3.123100
					CHANNELS 3 Xrotation Yrotation Zrotation
					JOINT Head
					{
						OFFSET 0.000000 9.051102 1.034000
						CHANNELS 3 Xrotation Yrotation Zrotation
						JOINT HairB
						{
							OFFSET 0.208400 24.786102 24.822300
							CHANNELS 3 Xrotation Yrotation Zrotation
							End Site
							{
								OFFSET 0.000000 32.263779 0.000000
							}
						}
						JOINT HairA
						{
							OFFSET -7.081100 24.428299 23.196600
							CHANNELS 3 Xrotation Yrotation Zrotation
							End Site
							{
								OFFSET 0.000000 32.263779 0.000000
							}
						}
						JOINT Hat
						{
							OFFSET 16.728800 15.048294 -15.439601
							CHANNELS 3 Xrotation Yrotation Zrotation
							End Site
							{
								OFFSET 0.000000 32.263779 0.000000
							}
						}
					}
				}
				JOINT LeftShoulder
				{
					OFFSET 6.197800 13.665199 -4.064700
					CHANNELS 3 Xrotation Yrotation Zrotation
					JOINT LeftArm
					{
						OFFSET 7.778100 -0.187103 -1.709300
						CHANNELS 3 Xrotation Yrotation Zrotation
						JOINT LeftForeArm
						{
							OFFSET 22.049376 0.000000 0.000000
							CHANNELS 3 Xrotation Yrotation Zrotation
							JOINT LeftHand
							{
								OFFSET 23.009392 0.000000 0.000000
								CHANNELS 3 Xrotation Yrotation Zrotation
								JOINT LeftHandThumb1
								{
									OFFSET 3.507191 -2.063065 3.133727
									CHANNELS 3 Xrotation Yrotation Zrotation
									JOINT LeftHandThumb2
									{
										OFFSET 3.101337 -1.790558 1.790558
										CHANNELS 3 Xrotation Yrotation Zrotation
										JOINT LeftHandThumb3
										{
											OFFSET 3.058640 -1.765907 1.765906
											CHANNELS 3 Xrotation Yrotation Zrotation
											End Site
											{
												OFFSET -0.415260 3.926476 -0.049563
											}
										}
									}
								}
								JOINT LeftHandIndex1
								{
									OFFSET 11.334419 -0.901459 3.706815
									CHANNELS 3 Xrotation Yrotation Zrotation
									JOINT LeftHandIndex2
									{
										OFFSET 3.283112 0.000000 0.000000
										CHANNELS 3 Xrotation Yrotation Zrotation
										JOINT LeftHandIndex3
										{
											OFFSET 3.323853 0.000000 0.000000
											CHANNELS 3 Xrotation Yrotation Zrotation
											End Site
											{
												OFFSET -1.135597 3.097809 0.402452
											}
										}
									}
								}
								JOINT LeftHandMiddle1
								{
									OFFSET 11.335861 0.000000 0.000000
									CHANNELS 3 Xrotation Yrotation Zrotation
									JOINT LeftHandMiddle2
									{
										OFFSET 3.410492 0.000000 0.000000
										CHANNELS 3 Xrotation Yrotation Zrotation
										JOINT LeftHandMiddle3
										{
											OFFSET 3.312172 0.000000 0.000000
											CHANNELS 3 Xrotation Yrotation Zrotation
											End Site
											{
												OFFSET -1.150200 3.080154 0.400270
											}
										}
									}
								}
								JOINT LeftHandRing1
								{
									OFFSET 11.514786 -0.013176 -3.003090
									CHANNELS 3 Xrotation Yrotation Zrotation
									JOINT LeftHandRing2
									{
										OFFSET 3.053307 0.000000 0.000000
										CHANNELS 3 Xrotation Yrotation Zrotation
										JOINT LeftHandRing3
										{
											OFFSET 3.295807 0.000000 0.000000
											CHANNELS 3 Xrotation Yrotation Zrotation
											End Site
											{
												OFFSET -1.281006 3.013344 0.375733
											}
										}
									}
								}
								JOINT LeftHandPinky1
								{
									OFFSET 10.518692 -0.960396 -5.730441
									CHANNELS 3 Xrotation Yrotation Zrotation
									JOINT LeftHandPinky2
									{
										OFFSET 2.861649 0.000000 0.000000
										CHANNELS 3 Xrotation Yrotation Zrotation
										JOINT LeftHandPinky3
										{
											OFFSET 2.863380 0.000000 0.000000
											CHANNELS 3 Xrotation Yrotation Zrotation
											End Site
											{
												OFFSET -0.843597 2.711159 0.369971
											}
										}
									}
								}
							}
							JOINT LSleeve
							{
								OFFSET 6.676277 -0.344902 -1.011730
								CHANNELS 3 Xrotation Yrotation Zrotation
								End Site
								{
									OFFSET 0.000000 14.885353 0.000000
								}
							}
						}
					}
				}
				JOINT RightShoulder
				{
					OFFSET -6.197800 13.665199 -4.064700
					CHANNELS 3 Xrotation Yrotation Zrotation
					JOINT RightArm
					{
						OFFSET -7.778100 -0.187103 -1.709300
						CHANNELS 3 Xrotation Yrotation Zrotation
						JOINT RightForeArm
						{
							OFFSET -22.049376 0.000000 0.000000
							CHANNELS 3 Xrotation Yrotation Zrotation
							JOINT RightHand
							{
								OFFSET -23.009392 0.000000 0.000000
								CHANNELS 3 Xrotation Yrotation Zrotation
								JOINT RightHandThumb1
								{
									OFFSET -3.507191 -2.063065 3.133727
									CHANNELS 3 Xrotation Yrotation Zrotation
									JOINT RightHandThumb2
									{
										OFFSET -3.101337 -1.790558 1.790558
										CHANNELS 3 Xrotation Yrotation Zrotation
										JOINT RightHandThumb3
										{
											OFFSET -3.058640 -1.765907 1.765906
											CHANNELS 3 Xrotation Yrotation Zrotation
											End Site
											{
												OFFSET 0.415260 3.926476 -0.049563
											}
										}
									}
								}
								JOINT RightHandIndex1
								{
									OFFSET -11.334419 -0.901459 3.706815
									CHANNELS 3 Xrotation Yrotation Zrotation
									JOINT RightHandIndex2
									{
										OFFSET -3.283112 0.000000 0.000000
										CHANNELS 3 Xrotation Yrotation Zrotation
										JOINT RightHandIndex3
										{
											OFFSET -3.323853 0.000000 0.000000
											CHANNELS 3 Xrotation Yrotation Zrotation
											End Site
											{
												OFFSET 1.135597 3.097809 0.402452
											}
										}
									}
								}
								JOINT RightHandMiddle1
								{
									OFFSET -11.335861 0.000000 0.000000
									CHANNELS 3 Xrotation Yrotation Zrotation
									JOINT RightHandMiddle2
									{
										OFFSET -3.410492 0.000000 0.000000
										CHANNELS 3 Xrotation Yrotation Zrotation
										JOINT RightHandMiddle3
										{
											OFFSET -3.312172 0.000000 0.000000
											CHANNELS 3 Xrotation Yrotation Zrotation
											End Site
											{
												OFFSET 1.150200 3.080154 0.400270
											}
										}
									}
								}
								JOINT RightHandRing1
								{
									OFFSET -11.514786 -0.013176 -3.003090
									CHANNELS 3 Xrotation Yrotation Zrotation
									JOINT RightHandRing2
									{
										OFFSET -3.053307 0.000000 0.000000
										CHANNELS 3 Xrotation Yrotation Zrotation
										JOINT RightHandRing3
										{
											OFFSET -3.295807 0.000000 0.000000
											CHANNELS 3 Xrotation Yrotation Zrotation
											End Site
											{
												OFFSET 1.281006 3.013344 0.375733
											}
										}
									}
								}
								JOINT RightHandPinky1
								{
									OFFSET -10.518692 -0.960396 -5.730441
									CHANNELS 3 Xrotation Yrotation Zrotation
									JOINT RightHandPinky2
									{
										OFFSET -2.861649 0.000000 0.000000
										CHANNELS 3 Xrotation Yrotation Zrotation
										JOINT RightHandPinky3
										{
											OFFSET -2.863380 0.000000 0.000000
											CHANNELS 3 Xrotation Yrotation Zrotation
											End Site
											{
												OFFSET 0.843597 2.711159 0.369971
											}
										}
									}
								}
							}
							JOINT RSleeve
							{
								OFFSET -6.676277 -0.344902 -1.011730
								CHANNELS 3 Xrotation Yrotation Zrotation
								End Site
								{
									OFFSET 0.000000 14.885353 0.000000
								}
							}
						}
					}
				}
				JOINT Backpack
				{
					OFFSET 0.000000 -2.471497 36.677502
					CHANNELS 3 Xrotation Yrotation Zrotation
					End Site
					{
						OFFSET 0.000000 20.427315 0.000000
					}
				}
				JOINT Hood
				{
					OFFSET 0.000000 18.754097 -10.431000
					CHANNELS 3 Xrotation Yrotation Zrotation
					JOINT Hood1
					{
						OFFSET 0.000000 -5.011002 -7.685901
						CHANNELS 3 Xrotation Yrotation Zrotation
						End Site
						{
							OFFSET 0.000000 9.175140 0.000000
						}
					}
				}
				JOINT LHoodieString
				{
					OFFSET 5.250500 16.397697 3.089900
					CHANNELS 3 Xrotation Yrotation Zrotation
					JOINT LHoodieString1
					{
						OFFSET 0.257700 -6.364304 3.694600
						CHANNELS 3 Xrotation Yrotation Zrotation
						JOINT LHoodieString2
						{
							OFFSET 0.000000 -9.643799 2.679100
							CHANNELS 3 Xrotation Yrotation Zrotation
							End Site
							{
								OFFSET 0.000000 10.009018 0.000000
							}
						}
					}
				}
				JOINT RHoodieString
				{
					OFFSET -5.250500 16.397697 3.089900
					CHANNELS 3 Xrotation Yrotation Zrotation
					JOINT RHoodieString1
					{
						OFFSET -0.257700 -6.364304 3.694600
						CHANNELS 3 Xrotation Yrotation Zrotation
						JOINT RHoodieString2
						{
							OFFSET 0.000000 -9.643799 2.679100
							CHANNELS 3 Xrotation Yrotation Zrotation
							End Site
							{
								OFFSET 0.000000 10.009018 0.000000
							}
						}
					}
				}
			}
			JOINT LBackpack_Strap
			{
				OFFSET 15.223200 -7.719803 -6.610900
				CHANNELS 3 Xrotation Yrotation Zrotation
				End Site
				{
					OFFSET 0.000000 16.040596 0.000000
				}
			}
			JOINT RBackpack_Strap
			{
				OFFSET -15.223000 -7.719803 -6.610900
				CHANNELS 3 Xrotation Yrotation Zrotation
				End Site
				{
					OFFSET 0.000000 16.040596 0.000000
				}
			}
		}
	}
	JOINT BoyFacialAnim_Joint
	{
		OFFSET 1.000000 -82.208099 -1.550900
		CHANNELS 3 Xrotation Yrotation Zrotation
		End Site
		{
			OFFSET 0.000000 30.012791 0.000000
		}
	}
}
MOTION
Frames: 4
Frame Time: 0.016667
0.245976 78.029526 0.217957 1.620106 155.690119 2.199089 0.000000 0.000000 0.000000 -22.648316 -6.364642 9.919843 26.183745 -0.189323 -0.974479 -2.509907 -2.912987 -13.547436 0.000000 -0.000000 0.000000 0.000000 -0.000000 0.000000 0.000000 0.000000 -0.000000 -20.553672 -12.539975 -19.502330 39.524949 0.298732 1.446193 -16.977926 -8.188737 9.372823 -0.000000 -0.000000 0.000000 -0.000000 -0.000000 0.000000 0.000001 0.000001 0.000000 5.547883 0.033779 -0.529650 11.095619 0.009767 -0.734627 11.095630 0.009768 -0.734627 -10.509365 -1.525005 -3.378806 -17.396261 -3.946710 2.467848 -0.000000 -0.000000 -0.000000 -0.000000 -0.000000 -0.000000 -0.000000 -0.000000 -0.000000 9.458518 -6.444352 -14.996469 -9.678084 10.609533 -35.777221 0.014704 -55.260974 0.179041 23.479009 -9.549550 10.015905 7.350849 -14.484229 -10.934839 -1.067060 0.182846 1.946100 -0.000001 -0.000002 0.000000 5.776114 -9.584531 -10.641311 0.033760 0.666541 -10.636463 -0.000000 0.000001 -0.000005 1.641864 7.127204 -4.239648 -0.187950 -0.789339 -15.969020 0.000002 0.000000 -0.000005 1.677313 11.039957 -8.046067 -0.183063 -2.876863 -23.912173 -0.000001 0.000001 -0.000004 0.734619 28.047550 -16.218781 -0.849525 -6.142162 -29.148263 0.000002 0.000000 0.000002 -0.000000 0.000001 0.000001 -3.413062 0.044904 -0.357071 -8.509096 -11.385598 60.673568 -0.093544 56.136799 -0.118041 33.241370 -12.824981 -17.733568 -4.978386 12.391667 9.407263 -1.210142 -0.220444 -2.121009 -0.000001 0.000002 -0.000001 10.258604 13.576552 6.067483 0.012528 -0.647891 4.076592 0.000001 0.000001 0.000002 -1.738477 -1.671000 3.393791 -0.252708 0.798111 21.448273 -0.000000 0.000001 0.000000 -0.824249 -13.700974 18.348846 -0.242208 2.213611 16.221189 -0.000000 -0.000001 -0.000003 -4.380722 -23.900594 30.060311 -0.233918 5.125288 12.870328 0.000000 -0.000000 -0.000003 0.000001 0.000000 -0.000002 0.000001 -0.000001 0.000001 0.000001 -0.000001 0.000001 0.000001 -0.000001 0.000001 0.000001 -0.000001 0.000001 0.000001 -0.000001 0.000001 0.000001 0.000000 -0.000000 0.000001 -0.000001 0.000001 0.000001 -0.000001 0.000001 0.000001 0.000000 -0.000000 0.000001 0.000001 -0.000000 0.000001 0.000001 -0.000000 0.000000 0.000000 0.000000 
0.216538 77.901337 0.238981 1.092655 154.746569 2.251278 0.000000 0.000000 0.000000 -23.580970 -5.205568 10.572030 27.206500 -0.210942 -1.012473 -3.057648 -3.367717 -13.475376 -0.000000 0.000000 -0.000000 -0.000000 0.000000 -0.000000 0.000000 0.000001 -0.000001 -21.380312 -11.661264 -19.103149 40.070702 0.301739 1.464905 -17.064854 -8.074362 9.328315 0.000000 -0.000001 -0.000000 0.000000 -0.000001 -0.000000 0.000002 -0.000000 -0.000000 5.540989 -0.008360 -0.573724 11.081762 -0.077128 -0.835932 11.081764 -0.077127 -0.835931 -10.962304 -1.919709 -3.250077 -17.063814 -4.417233 3.165611 0.000000 -0.000001 -0.000000 0.000000 -0.000001 -0.000000 0.000000 -0.000001 -0.000000 9.412425 -6.453413 -14.019423 -8.662135 10.477076 -35.400485 0.010195 -54.481936 0.179125 23.395496 -10.993405 10.180223 7.349528 -14.482216 -10.935188 -1.067022 0.182828 1.946022 0.000000 -0.000001 0.000000 5.776064 -9.584124 -10.640207 0.033766 0.666543 -10.636311 -0.000001 -0.000000 0.000003 1.641798 7.127187 -4.239307 -0.187945 -0.789344 -15.968851 -0.000000 0.000000 -0.000003 1.677177 11.039864 -8.045506 -0.183070 -2.876820 -23.911722 -0.000000 -0.000000 -0.000002 0.734548 28.047040 -16.218547 -0.849498 -6.142065 -29.147730 -0.000003 0.000000 0.000003 -0.000001 -0.000002 0.000004 -3.299630 0.252111 -0.421619 -8.140540 -9.974491 59.691851 -0.093548 55.025414 -0.121965 32.733070 -11.033744 -18.050308 -4.980120 12.389502 9.406445 -1.210077 -0.220413 -2.120932 0.000000 0.000001 -0.000002 10.258443 13.576046 6.066716 0.012527 -0.647888 4.076568 0.000001 0.000000 0.000004 -1.738416 -1.671053 3.393420 -0.252707 0.798107 21.447904 -0.000001 -0.000001 -0.000000 -0.824383 -13.700840 18.347097 -0.242217 2.213571 16.220927 -0.000000 0.000000 0.000001 -4.381126 -23.900176 30.057494 -0.233938 5.125180 12.870101 0.000000 -0.000000 0.000000 0.000001 0.000002 -0.000000 0.000002 0.000001 0.000000 0.000002 0.000001 0.000000 0.000002 0.000001 0.000000 0.000002 0.000001 0.000000 0.000002 0.000001 0.000000 0.000003 0.000001 -0.000000 0.000002 0.000001 0.000000 0.000002 0.000001 0.000000 0.000003 0.000001 -0.000000 -0.000000 0.000002 -0.000000 -0.000000 0.000002 -0.000000 0.000000 0.000000 0.000000 
0.177531 77.703575 0.264054 0.300553 153.361625 2.360963 -0.000000 0.000001 -0.000000 -24.838478 -3.926469 11.439791 28.638092 -0.238923 -1.065239 -3.840573 -3.601855 -13.455544 0.000000 0.000002 0.000000 0.000000 0.000002 0.000000 0.000000 -0.000001 -0.000000 -22.607916 -10.458779 -18.563874 40.847953 0.306564 1.491481 -17.176758 -7.804242 9.271840 -0.000000 0.000002 0.000000 -0.000000 0.000002 0.000000 0.000000 -0.000000 0.000000 5.532036 -0.051689 -0.620804 11.063663 -0.166392 -0.951347 11.063664 -0.166379 -0.951351 -11.367813 -2.308020 -3.134615 -16.612924 -4.878090 3.873083 -0.000000 -0.000001 -0.000000 -0.000000 -0.000001 -0.000000 -0.000000 -0.000001 -0.000000 9.287386 -6.480157 -13.016978 -7.148116 10.286344 -34.868126 0.002861 -53.374383 0.177142 23.239200 -12.347006 10.353359 7.347649 -14.479381 -10.935734 -1.066975 0.182820 1.945978 0.000000 0.000001 0.000001 5.775939 -9.583592 -10.639078 0.033767 0.666521 -10.636088 -0.000000 -0.000001 -0.000004 1.641729 7.127109 -4.238977 -0.187950 -0.789318 -15.968595 -0.000000 -0.000001 -0.000000 1.677020 11.039723 -8.044925 -0.183040 -2.876743 -23.911097 -0.000002 0.000002 -0.000007 0.734441 28.046309 -16.218182 -0.849431 -6.141890 -29.146951 -0.000000 0.000000 0.000003 0.000000 0.000002 0.000000 -3.131418 0.557777 -0.519412 -7.620058 -7.972471 58.297297 -0.094692 53.382836 -0.125835 32.021460 -8.492659 -18.497061 -4.982267 12.386637 9.405924 -1.210024 -0.220405 -2.120870 0.000001 -0.000001 -0.000003 10.258135 13.575362 6.065990 0.012524 -0.647868 4.076551 -0.000000 0.000001 -0.000001 -1.738354 -1.671120 3.393041 -0.252693 0.798076 21.447369 -0.000002 -0.000001 -0.000002 -0.824510 -13.700619 18.345287 -0.242213 2.213515 16.220535 -0.000001 -0.000001 -0.000002 -4.381515 -23.899570 30.054557 -0.233949 5.125048 12.869828 -0.000000 0.000000 -0.000003 0.000002 0.000003 -0.000002 -0.000000 0.000000 0.000001 -0.000000 0.000000 0.000001 -0.000000 0.000000 0.000001 -0.000000 0.000000 0.000001 -0.000000 0.000000 0.000001 0.000002 0.000000 -0.000000 -0.000000 0.000000 0.000001 -0.000000 0.000000 0.000001 0.000002 0.000000 -0.000000 -0.000002 -0.000001 0.000000 -0.000002 -0.000001 0.000000 -0.000000 0.000001 -0.000000 
0.102982 77.326141 0.305836 -1.211092 150.772820 2.665161 -0.000000 -0.000000 0.000000 -27.049392 -2.274337 12.931083 31.228564 -0.285200 -1.159588 -5.272936 -3.317890 -13.507517 -0.000000 -0.000000 -0.000000 -0.000000 -0.000000 -0.000000 -0.000000 -0.000002 0.000002 -24.943637 -8.322383 -17.541428 42.274083 0.314305 1.539776 -17.360488 -7.218785 9.180660 -0.000000 -0.000004 0.000000 -0.000000 -0.000004 0.000000 0.000000 -0.000001 -0.000001 5.516635 -0.098214 -0.677308 11.032431 -0.262070 -1.106971 11.032437 -0.262061 -1.106975 -11.644145 -2.672793 -3.043679 -15.844138 -5.313088 4.602628 0.000000 -0.000000 0.000000 0.000000 -0.000000 0.000000 0.000000 -0.000000 0.000000 8.947989 -6.559116 -11.945461 -4.288829 9.928073 -33.890890 -0.012152 -51.337027 0.169238 22.892554 -13.455982 10.544912 7.344187 -14.474163 -10.936677 -1.066925 0.182791 1.945923 0.000000 -0.000001 0.000001 5.775576 -9.582679 -10.637810 0.033747 0.666490 -10.635721 -0.000000 0.000001 -0.000003 1.641595 7.126982 -4.238581 -0.187945 -0.789331 -15.968137 -0.000000 0.000000 -0.000002 1.676808 11.039390 -8.044198 -0.183008 -2.876592 -23.909965 -0.000001 0.000000 0.000001 0.734233 28.044960 -16.217550 -0.849278 -6.141621 -29.145537 0.000001 -0.000000 -0.000000 -0.000000 0.000000 0.000001 -2.814932 1.132003 -0.706647 -6.670060 -4.296608 55.732670 -0.098532 50.295932 -0.129481 30.742948 -3.827467 -19.312418 -4.985595 12.381775 9.406284 -1.209967 -0.220393 -2.120806 -0.000000 0.000002 -0.000001 10.257419 13.574216 6.065331 0.012521 -0.647835 4.076514 -0.000000 0.000002 0.000002 -1.738277 -1.671267 3.392609 -0.252687 0.798059 21.446446 -0.000000 0.000002 0.000002 -0.824647 -13.700145 18.343219 -0.242202 2.213416 16.219811 -0.000002 0.000000 0.000004 -4.381891 -23.898361 30.051214 -0.233922 5.124799 12.869279 -0.000000 -0.000000 0.000002 0.000001 0.000001 -0.000003 -0.000001 0.000000 0.000000 -0.000001 0.000000 0.000000 -0.000001 0.000000 0.000000 -0.000001 0.000000 0.000000 -0.000001 0.000000 0.000000 -0.000000 0.000000 0.000000 -0.000001 0.000000 0.000000 -0.000001 0.000000 0.000000 -0.000000 0.000000 0.000000 -0.000001 0.000001 0.000000 -0.000001 0.000001 0.000000 -0.000000 -0.000000 0.000000 
